<mxfile host="app.diagrams.net" modified="2024-06-12T05:06:03.928Z" agent="Mozilla/5.0 (Macintosh; Intel Mac OS X 10_15_7) AppleWebKit/605.1.15 (KHTML, like Gecko) Version/17.1 Safari/605.1.15" version="24.5.3" etag="Tz8MLMmNqJtgpmg8TFyt" type="github">
  <diagram name="Страница — 1" id="FeHOnq5RF3WXG7irDBk9">
    <mxGraphModel>
      <root>
        <mxCell id="0" />
        <mxCell id="1" parent="0" />
      </root>
    </mxGraphModel>
  </diagram>
</mxfile>
